# xmcd CD database file
#
# Track frame offsets:
#	150
#	25632
#	51642
#	88837
#
# Disc length: 1374 seconds
#
# Revision: 0
# Processed by: cddbd v1.5.1PL0 Copyright (c) Steve Scherf et al.
# Submitted via: CDex 1.51
#
DISCID=2e055c04
DTITLE=Dixie Tantas - super scream
DYEAR=1998
DGENRE=Vocal
TTITLE0=super scream
TTITLE1=Beat Maker
TTITLE2=明日の夢を見るところ（it's DEMO)
TTITLE3=データ
EXTD=YEAR: 1998
EXTT0=
EXTT1=
EXTT2=
EXTT3=
PLAYORDER=
